  <svg xmlns="http://www.w3.org/2000/svg" viewBox="0 0 149.12 120.55"><defs><style>.cls-1{fill:#f5861f;}.cls-2{fill:#00b1c5;}.cls-3{fill:none;}.cls-4{fill:#fff;}</style></defs><title>Asset 10</title><g id="Layer_2" data-name="Layer 2"><g id="Layer_1-2" data-name="Layer 1"><path class="cls-1" d="M112,9.77a13.89,13.89,0,0,0-1.21-2.68,14.13,14.13,0,0,0-2.18-2.85A14,14,0,0,0,98.64.09L50.61,0a14.07,14.07,0,0,0-14,12.56A14.34,14.34,0,0,0,36.5,14l0,9.33v34.9c0,.24,0,.47,0,.7a14.11,14.11,0,0,0,.44,2.89A13.88,13.88,0,0,0,38,64.79a14.08,14.08,0,0,0,12.47,7.59l48,.09A14.05,14.05,0,0,0,112.57,59c0-.19,0-.38,0-.57l0-7.91V23.38l0-9.19a14.3,14.3,0,0,0-.1-1.63A14,14,0,0,0,112,9.77Z"/><path class="cls-2" d="M118.34,58.43c0,.1,0,.2,0,.3l7.1-.32c2.89-.13,5.24-4.06,5.48-8.72l-12.55.57Z"/><path class="cls-2" d="M118.39,32.17V44.51l12.37-.56,2.87-.13.94,0a3.66,3.66,0,0,0,1.87-.64,6.78,6.78,0,0,0,1.89-2A13.31,13.31,0,0,0,140,33.62l-.11-2.42Z"/><path class="cls-2" d="M148.91,10.69c-.13-2.93-1.69-4.83-2.71-4.85l-28,5.6a20,20,0,0,1,.21,2.77l0,8v4.19L129,25.95l9.66-.44,3.16-.14,1.73-.08a3.46,3.46,0,0,0,1.22-.3c2.58-1.12,4.49-5.29,4.28-9.86Z"/><path class="cls-2" d="M30.69,50.23l-12.49-.57a12.72,12.72,0,0,0,1.71,6c.6,1,1.89,2.59,3.76,2.68l7,.32c0-.15,0-.3,0-.45Z"/><path class="cls-2" d="M9.07,33.59c-.19,4.18,1.39,8,3.63,9.48a3.7,3.7,0,0,0,1.87.69l.94,0,2.87.13,12.33.56V32.15l-21.55-1Z"/><path class="cls-2" d="M2.37,5.93c-.88.47-2,2.22-2.15,4.73L0,15.1a13.31,13.31,0,0,0,1.74,7.49A6.12,6.12,0,0,0,4.29,25a3.44,3.44,0,0,0,1.22.29l1.73.08,3.17.14,9.53.43,10.79.49V22.23l0-8.19a20,20,0,0,1,.19-2.6L2.79,5.81A1,1,0,0,0,2.37,5.93Z"/><path class="cls-3" d="M48.41,93.92a6.85,6.85,0,0,0-4-1.1,7.15,7.15,0,0,0-4,1.1,5.63,5.63,0,0,0-2.33,3.29H50.26A4.47,4.47,0,0,0,48.41,93.92Z"/><path class="cls-3" d="M103.61,95a6,6,0,0,0-2-1.3,6.73,6.73,0,0,0-2.48-.46,6.61,6.61,0,0,0-2.51.48,6.36,6.36,0,0,0-2.07,1.35,6.47,6.47,0,0,0-1.41,2.08,6.67,6.67,0,0,0-.52,2.68,7,7,0,0,0,.52,2.74,6.4,6.4,0,0,0,1.41,2.1A6,6,0,0,0,96.59,106a6.89,6.89,0,0,0,2.51.46,6.44,6.44,0,0,0,2.48-.48,6.14,6.14,0,0,0,2-1.35,6.3,6.3,0,0,0,1.37-2.1,7.1,7.1,0,0,0,.5-2.7,7.23,7.23,0,0,0-.5-2.74A6.06,6.06,0,0,0,103.61,95Z"/><path class="cls-3" d="M75.08,93.92a6.85,6.85,0,0,0-4-1.1,7.15,7.15,0,0,0-4,1.1,5.63,5.63,0,0,0-2.33,3.29H76.93A4.46,4.46,0,0,0,75.08,93.92Z"/><path class="cls-2" d="M12.75,84.73H22.4V97.44a11.69,11.69,0,0,1-.48,3.41,7.49,7.49,0,0,1-1.48,2.74,7,7,0,0,1-2.51,1.83,8.77,8.77,0,0,1-3.56.66q-8.07,0-8.07-8.28H.3a15.94,15.94,0,0,0,1,6,11.9,11.9,0,0,0,7.33,7,16.77,16.77,0,0,0,5.64.92,15.5,15.5,0,0,0,5.91-1.08,12.59,12.59,0,0,0,4.43-3,12.9,12.9,0,0,0,2.76-4.53,16.64,16.64,0,0,0,1-5.74V79.1H12.75Z"/><path class="cls-2" d="M53.1,91.38a9.25,9.25,0,0,0-3.77-2.63,14.15,14.15,0,0,0-5.1-.87,13.51,13.51,0,0,0-5,.87,10.69,10.69,0,0,0-3.77,2.45A10.92,10.92,0,0,0,33.08,95a12.93,12.93,0,0,0-.85,4.73,13.69,13.69,0,0,0,.85,4.92,10.51,10.51,0,0,0,2.45,3.8,11,11,0,0,0,3.89,2.45,14.62,14.62,0,0,0,5.22.87,16.44,16.44,0,0,0,5.26-.89,10.73,10.73,0,0,0,4.44-2.77l-3.57-3.52A6.25,6.25,0,0,1,48,106.09a11.17,11.17,0,0,1-3.32.55A7.49,7.49,0,0,1,40,105.29a5.06,5.06,0,0,1-2-3.45H55.61a18.08,18.08,0,0,0-.34-6.08A10.62,10.62,0,0,0,53.1,91.38Zm-15,5.83a5.63,5.63,0,0,1,2.33-3.29,7.15,7.15,0,0,1,4-1.1,6.85,6.85,0,0,1,4,1.1,4.47,4.47,0,0,1,1.85,3.29Z"/><path class="cls-2" d="M79.77,91.38A9.25,9.25,0,0,0,76,88.75a14.16,14.16,0,0,0-5.1-.87,13.51,13.51,0,0,0-5,.87,10.69,10.69,0,0,0-3.77,2.45A10.92,10.92,0,0,0,59.75,95a12.94,12.94,0,0,0-.85,4.73,13.69,13.69,0,0,0,.85,4.92,10.51,10.51,0,0,0,2.45,3.8,11,11,0,0,0,3.89,2.45,14.62,14.62,0,0,0,5.22.87,16.44,16.44,0,0,0,5.26-.89A10.72,10.72,0,0,0,81,108.06l-3.57-3.52a6.26,6.26,0,0,1-2.72,1.56,11.17,11.17,0,0,1-3.32.55,7.49,7.49,0,0,1-4.71-1.35,5.06,5.06,0,0,1-2-3.45H82.28a18.1,18.1,0,0,0-.34-6.08A10.62,10.62,0,0,0,79.77,91.38Zm-15,5.83a5.63,5.63,0,0,1,2.33-3.29,7.15,7.15,0,0,1,4-1.1,6.85,6.85,0,0,1,4,1.1,4.46,4.46,0,0,1,1.85,3.29Z"/><path class="cls-2" d="M107.79,91a10,10,0,0,0-3.63-2.24A13.4,13.4,0,0,0,99.6,88a9.74,9.74,0,0,0-2,.23,10.51,10.51,0,0,0-2.12.69,9.38,9.38,0,0,0-1.92,1.14,5.35,5.35,0,0,0-1.39,1.56V79.15H86.58v32h5.26l.37-3.11a7,7,0,0,0,3.26,2.84,10.63,10.63,0,0,0,4,.78,12.91,12.91,0,0,0,4.59-.8,10.52,10.52,0,0,0,3.67-2.31,10.69,10.69,0,0,0,2.44-3.71,13.18,13.18,0,0,0,.89-5,13.91,13.91,0,0,0-.87-5.12A10.38,10.38,0,0,0,107.79,91ZM105,102.52a6.3,6.3,0,0,1-1.37,2.1,6.14,6.14,0,0,1-2,1.35,6.44,6.44,0,0,1-2.48.48,6.89,6.89,0,0,1-2.51-.46,6,6,0,0,1-2.07-1.33,6.4,6.4,0,0,1-1.41-2.1,7,7,0,0,1-.52-2.74,6.67,6.67,0,0,1,.52-2.68,6.47,6.47,0,0,1,1.41-2.08,6.36,6.36,0,0,1,2.07-1.35,6.61,6.61,0,0,1,2.51-.48,6.73,6.73,0,0,1,2.48.46,5.9,5.9,0,0,1,3.4,3.39,7.23,7.23,0,0,1,.5,2.74A7.1,7.1,0,0,1,105,102.52Z"/><rect class="cls-2" x="115.18" y="79.15" width="5.58" height="31.98"/><polygon class="cls-2" points="138.51 98.45 136.17 104.67 134.02 98.31 130.59 88.57 124.1 88.57 133.11 110.76 128.9 120.55 135.03 120.55 148.8 88.57 142.62 88.57 138.51 98.45"/><path class="cls-4" d="M88.53,41a21,21,0,0,1-.31,2.12c-.06.3-.12.61-.19.9-.13.52-.27,1-.45,1.54s-.3.79-.46,1.17c-.06.14-.11.29-.17.43a15.9,15.9,0,0,1-2.76,4.23,15.39,15.39,0,0,1-3.44,2.79,17.51,17.51,0,0,1-2.11,1.11c-.17.07-.34.12-.51.19a17.8,17.8,0,0,1-2.74.84c-.59.13-1.2.23-1.82.31a23.15,23.15,0,0,1-2.4.19h-.73a22.92,22.92,0,0,1-3.13-.22A19.65,19.65,0,0,1,64,55.81a15.56,15.56,0,0,1-5.7-3.28,14.43,14.43,0,0,1-1.64-1.81,15.89,15.89,0,0,1-1.6-2.5c-.19-.38-.39-.75-.56-1.15s-.39-1-.56-1.54v0a19.51,19.51,0,0,1-.66-3,24.19,24.19,0,0,1-.26-3h0l6.28-.13,1.33,0c0,.6.06,1.16.12,1.71a14.59,14.59,0,0,0,.3,1.78,11.25,11.25,0,0,0,.39,1.28,8.79,8.79,0,0,0,1,2,7.45,7.45,0,0,0,1.26,1.41,9.29,9.29,0,0,0,5.18,2,16.74,16.74,0,0,0,2.2.1c.25,0,.48,0,.72,0a11.66,11.66,0,0,0,2.67-.47l.15,0a9.09,9.09,0,0,0,4.1-2.77,9.52,9.52,0,0,0,1.81-3.53c0-.05,0-.11,0-.16A14.81,14.81,0,0,0,81,38.43L80.7,22.29l-12.25.26-.15-7.14L88.16,15l.28,13.26.06,3,.15,7A23.51,23.51,0,0,1,88.53,41Z"/></g></g></svg>